HIERARCHY
ROOT root
{
	OFFSET 0.000000 0.000000 0.000000
	CHANNELS 6 Xposition Yposition Zposition Zrotation Yrotation Xrotation
	JOINT lhip
	{
		OFFSET 0.058581 -0.082280 -0.017664
		CHANNELS 3 Zrotation Yrotation Xrotation
		JOINT lknee
		{
			OFFSET 0.043451 -0.386469 0.008037
			CHANNELS 3 Zrotation Yrotation Xrotation
			JOINT lankle
			{
				OFFSET -0.014790 -0.426874 -0.037428
				CHANNELS 3 Zrotation Yrotation Xrotation
				JOINT ltoe
				{
					OFFSET 0.041054 -0.060286 0.122042
					CHANNELS 3 Zrotation Yrotation Xrotation
					End Site
					{
						OFFSET 0.000000 0.000000 0.000000
					}
				}
			}
		}
	}
	JOINT rhip
	{
		OFFSET -0.060310 -0.090513 -0.013543
		CHANNELS 3 Zrotation Yrotation Xrotation
		JOINT rknee
		{
			OFFSET -0.043257 -0.383688 -0.004843
			CHANNELS 3 Zrotation Yrotation Xrotation
			JOINT rankle
			{
				OFFSET 0.019056 -0.420046 -0.034562
				CHANNELS 3 Zrotation Yrotation Xrotation
				JOINT rtoe
				{
					OFFSET -0.034840 -0.062106 0.130323
					CHANNELS 3 Zrotation Yrotation Xrotation
					End Site
					{
						OFFSET 0.000000 0.000000 0.000000
					}
				}
			}
		}
	}
	JOINT lowerback
	{
		OFFSET 0.004439 0.124404 -0.038385
		CHANNELS 3 Zrotation Yrotation Xrotation
		JOINT upperback
		{
			OFFSET 0.004488 0.137956 0.026820
			CHANNELS 3 Zrotation Yrotation Xrotation
			JOINT chest
			{
				OFFSET -0.002265 0.056032 0.002855
				CHANNELS 3 Zrotation Yrotation Xrotation
				JOINT lowerneck
				{
					OFFSET -0.013390 0.211636 -0.033468
					CHANNELS 3 Zrotation Yrotation Xrotation
					JOINT upperneck
					{
						OFFSET 0.010113 0.088937 0.050410
						CHANNELS 3 Zrotation Yrotation Xrotation
						End Site
						{
							OFFSET 0.000000 0.000000 0.000000
						}
					}
				}
				JOINT lclavicle
				{
					OFFSET 0.071702 0.114000 -0.018898
					CHANNELS 3 Zrotation Yrotation Xrotation
					JOINT lshoulder
					{
						OFFSET 0.122921 0.045205 -0.019046
						CHANNELS 3 Zrotation Yrotation Xrotation
						JOINT lelbow
						{
							OFFSET 0.255332 -0.015649 -0.022946
							CHANNELS 3 Zrotation Yrotation Xrotation
							JOINT lwrist
							{
								OFFSET 0.265709 0.012698 -0.007375
								CHANNELS 3 Zrotation Yrotation Xrotation
								End Site
								{
									OFFSET 0.000000 0.000000 0.000000
								}
							}
						}
					}
				}
				JOINT rclavicle
				{
					OFFSET -0.082954 0.112472 -0.023707
					CHANNELS 3 Zrotation Yrotation Xrotation
					JOINT rshoulder
					{
						OFFSET -0.113228 0.046853 -0.008472
						CHANNELS 3 Zrotation Yrotation Xrotation
						JOINT relbow
						{
							OFFSET -0.260127 -0.014369 -0.031269
							CHANNELS 3 Zrotation Yrotation Xrotation
							JOINT rwrist
							{
								OFFSET -0.269108 0.006794 -0.006027
								CHANNELS 3 Zrotation Yrotation Xrotation
								End Site
								{
									OFFSET 0.000000 0.000000 0.000000
								}
							}
						}
					}
				}
			}
		}
	}
}
MOTION
Frames: 10
Frame Time: 0.033333
-0.148466 0.263257 0.998804 76.567516 -2.956587 80.155639 6.179737 -3.442538 -22.391844 -14.512495 -6.912626 47.754263 3.086387 7.234003 -14.423381 0.000000 -0.000000 0.000000 -10.784999 0.429203 -32.190237 1.237374 0.776703 62.489062 2.756956 -13.336902 -6.477953 0.000000 -0.000000 0.000000 1.897461 -3.703907 29.112610 1.959779 -1.881222 8.178218 -1.054066 -4.085263 6.429938 -8.798051 13.523201 11.097036 -8.066667 19.743686 -2.887398 -27.710482 13.331001 7.163150 -49.727268 17.509199 0.349415 -3.302892 -39.119759 19.256907 -9.957194 -5.055436 -12.784512 24.861050 -12.743378 5.144322 50.284989 -20.207540 -0.802690 -17.180632 32.218864 -28.216926 11.089792 10.624082 -22.559684 
-0.100649 0.261120 0.980998 78.131545 -0.588088 78.474345 7.040529 -0.810573 -25.120770 -14.816036 -4.696092 59.782000 1.568520 5.675544 -14.026381 0.000000 -0.000000 0.000000 -10.580779 2.266177 -30.225941 3.226287 5.040559 51.796683 7.401216 -6.721377 -4.178100 0.000000 -0.000000 0.000000 2.938836 -3.968560 32.100971 2.517970 -1.737577 9.593037 -0.519361 -3.265580 5.829672 -9.887887 15.229505 9.508608 -9.181517 20.123283 -2.334044 -28.894590 11.924678 5.422998 -51.140715 16.504770 0.479595 -1.350436 -35.631013 17.430778 -10.420024 -4.997811 -11.002485 27.611114 -9.499691 5.213952 51.282194 -17.812851 -0.578687 -11.227456 23.185011 -29.213727 11.426572 11.382941 -24.314207 
-0.058664 0.252988 0.964039 84.914239 2.166501 78.435477 8.396845 -1.891626 -33.619606 -15.189384 -1.596874 73.418122 -1.321666 3.557675 -2.149253 0.000000 -0.000000 0.000000 -10.690023 3.626278 -27.626385 4.198258 7.299046 51.613461 6.043246 -5.289568 -7.487580 0.000000 -0.000000 0.000000 3.607062 -4.218900 34.802572 4.301930 -2.890380 10.004090 0.552019 -3.169733 3.602914 -10.050620 15.325533 9.430541 -8.581932 20.757212 -2.920537 -29.987043 10.900168 5.073029 -50.366729 16.096079 0.075521 1.353114 -37.489712 14.591453 -10.973229 -4.506655 -10.970928 31.025214 -7.155066 5.561494 52.318228 -14.656687 -0.318720 -5.953438 15.909842 -26.790021 14.975951 11.685059 -20.666615 
-0.015966 0.241763 0.942199 91.711458 4.221488 78.676599 10.443468 -1.622311 -42.336670 -11.877589 3.459446 80.057729 -0.956932 6.264121 1.571998 0.000000 -0.000000 0.000000 -9.988754 1.755421 -23.269485 3.464421 3.956462 55.001845 1.304730 -6.975423 -18.378433 0.000000 -0.000000 0.000000 4.113183 -3.526251 36.953115 5.242684 -3.865215 9.066432 1.134142 -3.023101 3.424062 -9.093735 15.654024 8.227581 -7.883078 20.795780 -1.657763 -29.602091 10.317662 5.007116 -49.000279 15.299016 -1.374499 4.300693 -41.350180 12.150530 -10.471691 -5.118467 -14.836246 32.798472 -5.093215 5.603555 56.492305 -11.303679 0.749647 -5.447929 13.688817 -21.607427 19.498081 11.107400 -16.769801 
0.026599 0.235213 0.918982 95.971104 4.893283 79.136692 11.392477 1.726542 -48.154825 -9.101409 8.746867 77.299594 2.090101 6.304586 -5.146727 0.000000 -0.000000 0.000000 -8.468115 -2.592880 -19.759196 2.609349 4.979916 57.795286 -3.036466 -10.446433 -27.023190 0.000000 -0.000000 0.000000 3.922400 -1.235302 38.580343 4.971958 -3.469125 8.653832 1.671047 -2.460928 4.305440 -8.612864 16.399767 4.721715 -6.856249 20.076487 2.336446 -29.288141 9.884845 3.214155 -47.265463 13.319704 -3.547777 8.318875 -43.284958 8.197197 -9.973112 -4.999976 -17.821807 33.714528 -3.205019 5.080395 58.400625 -6.877576 3.860924 -5.124660 14.518838 -13.931378 23.257488 6.243655 -10.621425 
0.067813 0.235676 0.901884 98.834464 5.946715 80.238858 12.595125 3.292160 -51.542177 -10.507468 12.107931 67.093417 1.278304 4.631749 -10.268423 0.000000 -0.000000 0.000000 -9.136117 -2.838846 -18.972594 3.790422 1.180735 62.040234 -2.199032 -12.708637 -31.330279 0.000000 -0.000000 0.000000 3.821548 -0.172357 40.756406 4.298517 -1.787152 9.022417 1.917216 -0.509232 2.518365 -9.675508 16.334674 4.447057 -6.951076 20.298006 2.353347 -30.352451 8.375406 1.886378 -46.211527 12.152337 -4.099897 17.124543 -45.456991 -2.481575 -7.525537 -3.901192 -18.016425 33.809033 0.888768 6.289900 56.199069 -4.142772 7.356858 -4.578614 18.724308 -4.814240 26.563681 3.690163 -2.280747 
0.110552 0.241998 0.888633 102.715867 6.326170 82.187747 13.017500 1.849290 -54.579837 -10.810641 12.188914 55.804388 1.521889 5.188562 -9.574453 0.000000 -0.000000 0.000000 -10.175949 -7.197321 -16.249968 3.680231 0.410843 62.845255 -2.494177 -12.172765 -35.820115 0.000000 -0.000000 0.000000 4.382969 1.446614 42.066249 3.183761 -1.524451 8.104513 2.224026 1.107040 1.728648 -10.208070 15.236481 4.578671 -5.578537 19.833286 2.483722 -31.571739 6.305322 1.167791 -44.788180 11.026315 -4.225314 24.445867 -48.405810 -11.442965 -3.292457 -2.385436 -17.830184 33.770021 4.537192 8.182809 50.324694 -2.888457 6.685715 -5.254247 24.279740 -2.206021 22.096730 3.915959 3.591921 
0.153572 0.255043 0.878743 103.194571 6.880025 83.690439 15.378046 0.911203 -55.814226 -10.289159 8.677563 46.319266 2.029179 5.777086 -6.006668 0.000000 -0.000000 0.000000 -10.641408 -8.615443 -14.089883 4.645131 0.452696 63.220971 -2.228343 -13.003550 -39.008230 0.000000 -0.000000 0.000000 4.642251 3.907295 41.655085 1.686554 0.883737 9.308315 2.077910 2.621290 1.247423 -10.504569 14.658439 3.856210 -4.363757 19.164545 2.483606 -32.078591 5.307932 -1.021701 -43.896590 8.382606 -3.022835 29.952867 -50.156784 -16.210138 2.758779 -0.641817 -18.076957 31.993620 6.481060 8.811692 44.137041 -1.569440 3.598103 -7.423316 26.374751 -6.165144 15.287230 4.808556 4.409803 
0.201745 0.275085 0.871885 103.238948 7.677615 84.929446 17.497193 0.987322 -56.271452 -8.902715 3.860307 39.673266 2.115850 5.843747 -2.856467 0.000000 -0.000000 0.000000 -11.055594 -10.131798 -10.131776 4.059216 1.353335 61.090703 -0.990302 -11.372516 -41.056589 0.000000 -0.000000 0.000000 4.742168 5.561736 42.215102 -0.478226 2.729894 8.043216 1.883370 3.911196 0.552605 -10.866823 14.222296 4.847346 -2.845283 20.405985 2.190882 -32.816741 4.539440 -1.598495 -42.472779 9.000198 -3.450497 37.059567 -53.705541 -22.695301 5.688020 -0.162752 -18.378342 28.853702 7.933035 9.277145 39.437478 -3.073431 -0.548353 -10.707997 30.034897 -8.695260 8.428893 5.351622 4.583205 
0.256211 0.299481 0.868131 105.114347 8.440217 86.227592 18.892082 0.722503 -56.465653 -7.450278 1.266045 34.828924 2.877408 7.279105 -2.641995 0.000000 -0.000000 0.000000 -12.226264 -12.382951 -3.933996 4.147858 1.489317 56.761077 0.864879 -10.678623 -41.523232 0.000000 -0.000000 0.000000 4.460568 7.502898 40.769115 -1.666111 3.178130 8.720480 1.932670 4.393703 0.302156 -10.097050 14.411146 4.051203 -1.721112 21.081184 2.799646 -32.444446 4.855304 -2.544507 -42.035453 8.642920 -3.702711 44.571813 -56.185074 -28.765619 10.470369 0.524571 -16.838448 26.029381 8.507387 8.150946 34.790419 -4.990797 -1.331165 -12.265822 34.832435 -6.556028 5.649353 7.249213 8.163438 
